<svg width="244" height="30" viewBox="0 0 244 30" fill="none" xmlns="http://www.w3.org/2000/svg">
    <path
        d="M0.71875 2.65625C2.17708 2.69792 3.38542 2.72917 4.34375 2.75C5.32292 2.75 6.11458 2.75 6.71875 2.75H8.375H17.6875C17.7292 3.16667 17.7604 3.57292 17.7812 3.96875C17.8229 4.34375 17.8438 4.67708 17.8438 4.96875C17.8438 5.32292 17.8333 5.64583 17.8125 5.9375C17.7917 6.22917 17.7604 6.54167 17.7188 6.875C17.6771 7.16667 17.6354 7.47917 17.5938 7.8125C17.5521 8.14583 17.4792 8.48958 17.375 8.84375C17.0833 7.71875 16.6875 6.86458 16.1875 6.28125C15.7083 5.69792 15.2188 5.27083 14.7188 5C14.1354 4.6875 13.5208 4.52083 12.875 4.5C12.0208 4.54167 11.3542 4.61458 10.875 4.71875C10.3958 4.82292 10.0208 4.96875 9.75 5.15625C9.47917 5.34375 9.27083 5.5625 9.125 5.8125C9 6.04167 8.86458 6.30208 8.71875 6.59375C8.59375 6.84375 8.47917 7.22917 8.375 7.75C8.27083 8.1875 8.16667 8.78125 8.0625 9.53125C7.97917 10.2812 7.88542 11.25 7.78125 12.4375C8.34375 12.2708 8.79167 12.1146 9.125 11.9688C9.47917 11.8229 9.76042 11.6979 9.96875 11.5938C10.1979 11.4688 10.3646 11.3542 10.4688 11.25C10.5521 11.125 10.6771 10.8958 10.8438 10.5625C10.9688 10.2708 11.1354 9.875 11.3438 9.375C11.5729 8.875 11.8438 8.1875 12.1562 7.3125C12.1979 8.27083 12.2188 9.07292 12.2188 9.71875C12.2188 10.3438 12.2292 10.8542 12.25 11.25C12.25 11.7083 12.2604 12.0729 12.2812 12.3438V13.5312C12.2812 13.9688 12.2812 14.5625 12.2812 15.3125C12.3021 16.0417 12.3333 16.9688 12.375 18.0938C12.125 17.3229 11.8958 16.7188 11.6875 16.2812C11.5 15.8229 11.3333 15.4792 11.1875 15.25C11.0208 14.9792 10.875 14.7917 10.75 14.6875C10.6042 14.6458 10.4062 14.6042 10.1562 14.5625C9.92708 14.5417 9.63542 14.5312 9.28125 14.5312C8.94792 14.5312 8.52083 14.5833 8 14.6875C7.9375 15.8333 7.92708 16.7604 7.96875 17.4688C8.03125 18.1562 8.11458 18.6875 8.21875 19.0625C8.32292 19.5 8.44792 19.8125 8.59375 20C8.78125 20.1875 9.15625 20.3438 9.71875 20.4688C10.2812 20.5729 10.9167 20.6146 11.625 20.5938C12.3542 20.5521 13.0938 20.4271 13.8438 20.2188C14.5938 20.0104 15.2604 19.6667 15.8438 19.1875C16.2812 18.7917 16.75 18.2917 17.25 17.6875C17.6667 17.1667 18.125 16.5104 18.625 15.7188C19.1458 14.9271 19.6562 13.9688 20.1562 12.8438C20.0729 13.7812 20.0104 14.5625 19.9688 15.1875C19.9479 15.7917 19.9167 16.2812 19.875 16.6562C19.8333 17.0938 19.8021 17.4271 19.7812 17.6562C19.7812 17.9062 19.75 18.2604 19.6875 18.7188C19.6458 19.1146 19.5729 19.6562 19.4688 20.3438C19.3854 21.0104 19.2708 21.8646 19.125 22.9062C18.1458 22.9271 17.2188 22.9479 16.3438 22.9688C15.4688 22.9688 14.6979 22.9792 14.0312 23C13.2396 23.0208 12.5104 23.0417 11.8438 23.0625C11.1562 23.0625 10.3958 23.0938 9.5625 23.1562C8.83333 23.1979 7.96875 23.2604 6.96875 23.3438C5.98958 23.4271 4.90625 23.5417 3.71875 23.6875C3.82292 22.2708 3.89583 20.9375 3.9375 19.6875C4 18.4167 4.04167 17.3021 4.0625 16.3438C4.08333 15.2188 4.08333 14.1771 4.0625 13.2188C4.16667 10.8229 4.125 8.88542 3.9375 7.40625C3.75 5.92708 3.53125 4.97917 3.28125 4.5625C3.15625 4.41667 2.97917 4.23958 2.75 4.03125C2.5625 3.86458 2.30208 3.66667 1.96875 3.4375C1.63542 3.20833 1.21875 2.94792 0.71875 2.65625ZM21.2812 5.90625C22.2396 5.98958 23.0833 6.05208 23.8125 6.09375C24.5625 6.11458 25.1875 6.14583 25.6875 6.1875C26.2708 6.22917 26.7812 6.26042 27.2188 6.28125C27.6771 6.30208 28.2604 6.30208 28.9688 6.28125C29.5729 6.28125 30.3438 6.27083 31.2812 6.25C32.2396 6.20833 33.4062 6.14583 34.7812 6.0625L34.5312 10.4062C33.9271 11.0104 33.3854 11.5729 32.9062 12.0938C32.4479 12.6146 32.0417 13.0625 31.6875 13.4375C31.2917 13.875 30.9375 14.2708 30.625 14.625C30.3125 15 29.9583 15.4479 29.5625 15.9688C29.2083 16.4271 28.7812 16.9896 28.2812 17.6562C27.7812 18.3021 27.2083 19.0625 26.5625 19.9375C27.7083 19.875 28.6458 19.8125 29.375 19.75C30.1042 19.6667 30.6771 19.5938 31.0938 19.5312C31.5938 19.4479 31.9583 19.3854 32.1875 19.3438C32.3958 19.2604 32.6354 19.0833 32.9062 18.8125C33.1354 18.5833 33.4167 18.2396 33.75 17.7812C34.0833 17.3229 34.4583 16.6979 34.875 15.9062C34.875 16.5521 34.875 17.1042 34.875 17.5625C34.8958 18 34.9062 18.3646 34.9062 18.6562V19.5V20.2188C34.9062 20.4479 34.9062 20.7292 34.9062 21.0625C34.9271 21.3958 34.9479 21.7708 34.9688 22.1875C34.1562 22.0833 33.4167 22.0104 32.75 21.9688C32.0833 21.9062 31.5104 21.8646 31.0312 21.8438C30.4688 21.8229 29.9583 21.8229 29.5 21.8438C29.0417 21.8854 28.4688 21.9271 27.7812 21.9688C27.1979 22.0104 26.4792 22.0521 25.625 22.0938C24.7708 22.1354 23.7604 22.1875 22.5938 22.25L21.9062 18.9375C22.2812 18.7708 22.7292 18.4479 23.25 17.9688C23.7708 17.4896 24.2708 17 24.75 16.5C25.2917 15.9167 25.8646 15.2812 26.4688 14.5938C27.0521 13.9062 27.625 13.2188 28.1875 12.5312C28.6667 11.9479 29.1667 11.3438 29.6875 10.7188C30.2292 10.0938 30.6979 9.54167 31.0938 9.0625C29.9688 9.10417 29.0417 9.1875 28.3125 9.3125C27.5833 9.41667 27.0104 9.52083 26.5938 9.625C26.0938 9.75 25.7188 9.89583 25.4688 10.0625C25.2396 10.25 24.9583 10.5312 24.625 10.9062C24.3333 11.2188 23.9792 11.6458 23.5625 12.1875C23.1458 12.7083 22.6667 13.3854 22.125 14.2188C22.125 13.5312 22.1146 12.9167 22.0938 12.375C22.0729 11.8125 22.0521 11.3438 22.0312 10.9688C21.9896 10.5312 21.9583 10.1458 21.9375 9.8125C21.8958 9.47917 21.8438 9.11458 21.7812 8.71875C21.7396 8.36458 21.6667 7.95833 21.5625 7.5C21.4792 7.02083 21.3854 6.48958 21.2812 5.90625ZM44.1875 18.9688C44.7708 18.9688 45.3125 18.9062 45.8125 18.7812C46.2292 18.6771 46.625 18.5104 47 18.2812C47.3958 18.0312 47.6562 17.6667 47.7812 17.1875C48.1979 17.2708 48.5521 17.3438 48.8438 17.4062C49.1354 17.4479 49.3854 17.4896 49.5938 17.5312C49.8229 17.5938 50.0208 17.6354 50.1875 17.6562C50.3542 17.6979 50.5521 17.7396 50.7812 17.7812C50.9896 17.8229 51.2396 17.875 51.5312 17.9375C51.8438 17.9792 52.2083 18.0417 52.625 18.125C52.3125 18.0833 51.9896 18.1146 51.6562 18.2188C51.3438 18.3229 51.0417 18.4375 50.75 18.5625C50.4167 18.7083 50.1042 18.8854 49.8125 19.0938C49.625 19.2188 49.4062 19.4062 49.1562 19.6562C48.9271 19.9062 48.5938 20.1458 48.1562 20.375C47.7188 20.6042 47.1354 20.8021 46.4062 20.9688C45.6979 21.1146 44.7812 21.1667 43.6562 21.125C42.3021 21.0833 41.1667 20.8438 40.25 20.4062C39.3333 19.9479 38.5938 19.3958 38.0312 18.75C37.4688 18.0833 37.0625 17.3646 36.8125 16.5938C36.5625 15.8229 36.4271 15.1042 36.4062 14.4375C36.3854 13.7708 36.5833 13.0729 37 12.3438C37.4167 11.6146 38 10.9479 38.75 10.3438C39.5208 9.73958 40.4479 9.25 41.5312 8.875C42.6146 8.47917 43.8021 8.28125 45.0938 8.28125C45.8438 8.28125 46.5312 8.375 47.1562 8.5625C47.8021 8.72917 48.3854 8.95833 48.9062 9.25C49.4479 9.54167 49.9167 9.875 50.3125 10.25C50.7083 10.6042 51.0417 10.9688 51.3125 11.3438C51.5833 11.7396 51.8125 12.1562 52 12.5938C52.1667 12.9688 52.3021 13.3958 52.4062 13.875C52.5104 14.3542 52.5417 14.8438 52.5 15.3438C50.9167 15.3854 49.6354 15.4167 48.6562 15.4375C47.6979 15.4583 46.9479 15.4688 46.4062 15.4688H45H43.9375C43.5625 15.4688 43.0729 15.4792 42.4688 15.5C41.8646 15.5208 41.125 15.5521 40.25 15.5938C40.3542 16.4271 40.6146 17.0729 41.0312 17.5312C41.4688 17.9688 41.9271 18.3021 42.4062 18.5312C42.9479 18.7812 43.5417 18.9271 44.1875 18.9688ZM41.375 13.3438C42.0417 13.3854 42.5938 13.4167 43.0312 13.4375C43.4896 13.4583 43.8646 13.4792 44.1562 13.5C44.4688 13.5208 44.7188 13.5312 44.9062 13.5312H45.6875C46.2083 13.5312 47.1771 13.5 48.5938 13.4375C48.5312 12.5208 48.3333 11.8229 48 11.3438C47.6875 10.8646 47.3542 10.5104 47 10.2812C46.5833 10.0312 46.125 9.88542 45.625 9.84375C44.2708 9.86458 43.2604 10.1458 42.5938 10.6875C41.9479 11.2292 41.5417 12.1146 41.375 13.3438ZM71.2188 12.9062C70.9688 12.8646 70.6562 12.8333 70.2812 12.8125C69.9271 12.7917 69.5833 12.7812 69.25 12.7812C68.875 12.7812 68.4792 12.7917 68.0625 12.8125C67.625 12.8333 67.1875 12.8542 66.75 12.875C66.375 12.8958 65.9479 12.9271 65.4688 12.9688C65.0104 12.9896 64.5625 13.0208 64.125 13.0625C64.2917 12.9792 64.4375 12.8646 64.5625 12.7188C64.7083 12.5729 64.8333 12.4271 64.9375 12.2812C65.0417 12.1146 65.1354 11.9375 65.2188 11.75C65.3229 11.4375 65.3125 11.0625 65.1875 10.625C65.0625 10.1667 64.8333 9.75 64.5 9.375C64.1875 9 63.7812 8.70833 63.2812 8.5C62.8021 8.27083 62.2708 8.21875 61.6875 8.34375C61.0625 8.48958 60.5 8.70833 60 9C59.5208 9.29167 59.1146 9.69792 58.7812 10.2188C58.4688 10.7188 58.2396 11.3438 58.0938 12.0938C57.9688 12.8229 57.9375 13.6979 58 14.7188C58.0833 15.9896 58.2917 17 58.625 17.75C58.9583 18.5 59.3646 19.0625 59.8438 19.4375C60.3229 19.8125 60.8438 20.0417 61.4062 20.125C61.9896 20.1875 62.5625 20.1875 63.125 20.125C63.5208 20.0417 63.8854 19.8646 64.2188 19.5938C64.4896 19.3646 64.7396 19.0312 64.9688 18.5938C65.1979 18.1562 65.3021 17.5521 65.2812 16.7812L69.0938 16.625C68.6562 17.8542 68.125 18.8333 67.5 19.5625C66.875 20.2708 66.2708 20.8229 65.6875 21.2188C65 21.6771 64.3125 21.9896 63.625 22.1562C62.7708 22.3021 62.0104 22.3646 61.3438 22.3438C60.6771 22.3021 60.0729 22.1979 59.5312 22.0312C58.9896 21.8646 58.4896 21.6562 58.0312 21.4062C57.5729 21.1562 57.1354 20.8854 56.7188 20.5938C56.4479 20.4062 56.1458 20.0938 55.8125 19.6562C55.4792 19.2188 55.1667 18.6979 54.875 18.0938C54.5833 17.4688 54.3438 16.7812 54.1562 16.0312C53.9688 15.2812 53.8958 14.5104 53.9375 13.7188C53.9792 12.9062 54.1667 12.0938 54.5 11.2812C54.8333 10.4688 55.3646 9.6875 56.0938 8.9375C57.1979 7.8125 58.375 7.08333 59.625 6.75C60.8958 6.39583 62.0938 6.30208 63.2188 6.46875C64.3438 6.61458 65.3438 6.9375 66.2188 7.4375C67.0938 7.9375 67.7083 8.47917 68.0625 9.0625C68.4167 9.64583 68.6771 10.0938 68.8438 10.4062C69.0312 10.6979 69.1667 10.9271 69.25 11.0938C69.3542 11.2396 69.4375 11.3542 69.5 11.4375C69.5833 11.5 69.6979 11.5938 69.8438 11.7188C69.9479 11.8229 70.0729 11.9375 70.2188 12.0625C70.3438 12.1667 70.4896 12.2917 70.6562 12.4375C70.8229 12.5833 71.0104 12.7396 71.2188 12.9062ZM70.4375 1.46875C70.6667 1.57292 70.9375 1.64583 71.25 1.6875C71.5833 1.72917 71.8958 1.75 72.1875 1.75C72.5417 1.75 72.9062 1.73958 73.2812 1.71875C73.6562 1.69792 74.1146 1.65625 74.6562 1.59375C75.0938 1.55208 75.6354 1.5 76.2812 1.4375C76.9271 1.375 77.6458 1.29167 78.4375 1.1875C78.1458 1.33333 77.8958 1.48958 77.6875 1.65625C77.4792 1.82292 77.3021 1.98958 77.1562 2.15625C76.9896 2.34375 76.8542 2.53125 76.75 2.71875C76.6042 2.96875 76.4062 3.40625 76.1562 4.03125C75.9271 4.63542 75.6875 5.3125 75.4375 6.0625C75.2083 6.8125 75 7.57292 74.8125 8.34375C74.6458 9.11458 74.5521 9.77083 74.5312 10.3125C74.5104 10.7708 74.4896 11.2917 74.4688 11.875C74.4479 12.375 74.4271 12.9896 74.4062 13.7188C74.3854 14.4479 74.3646 15.2812 74.3438 16.2188C75.8438 15.1354 77 14.2708 77.8125 13.625C78.625 12.9583 79.2188 12.4479 79.5938 12.0938C80.0312 11.6979 80.2917 11.4167 80.375 11.25C80.3542 11.125 80.3021 10.9896 80.2188 10.8438C80.1146 10.7188 79.9688 10.5729 79.7812 10.4062C79.5938 10.2396 79.3125 10.0521 78.9375 9.84375C79.4792 9.90625 79.9479 9.94792 80.3438 9.96875C80.7604 9.98958 81.1146 10.0104 81.4062 10.0312C81.7396 10.0521 82.0312 10.0521 82.2812 10.0312C82.5521 10.0312 82.8854 10.0208 83.2812 10C83.9688 9.97917 85.0312 9.94792 86.4688 9.90625C85.0729 10.6354 83.9688 11.2604 83.1562 11.7812C82.6979 12.0729 82.2917 12.3438 81.9375 12.5938C81.5833 12.8646 81.2188 13.1458 80.8438 13.4375C80.5104 13.6875 80.125 13.9792 79.6875 14.3125C79.2708 14.6458 78.8542 15 78.4375 15.375C79.1667 16.5625 79.8021 17.5417 80.3438 18.3125C80.9062 19.0833 81.375 19.7083 81.75 20.1875C82.1875 20.75 82.5729 21.1979 82.9062 21.5312C83.2396 21.8438 83.6771 22.1979 84.2188 22.5938C84.6771 22.9479 85.2708 23.3646 86 23.8438C86.75 24.3021 87.6562 24.8333 88.7188 25.4375C88.1771 25.3333 87.6562 25.2604 87.1562 25.2188C86.6562 25.1979 86.2292 25.1979 85.875 25.2188C85.4375 25.2396 85.0417 25.2812 84.6875 25.3438C84.3125 25.4271 83.8958 25.5312 83.4375 25.6562C83.0417 25.7604 82.5729 25.8958 82.0312 26.0625C81.5104 26.25 80.9375 26.4896 80.3125 26.7812C80.7083 26.4896 81 26.2083 81.1875 25.9375C81.3958 25.6875 81.5417 25.4792 81.625 25.3125C81.7083 25.1042 81.7396 24.9271 81.7188 24.7812C81.6146 24.5729 81.375 24.1458 81 23.5C80.6458 22.9583 80.125 22.1667 79.4375 21.125C78.75 20.0833 77.7708 18.6667 76.5 16.875C76.4375 16.8958 76.3333 16.9583 76.1875 17.0625C76.0625 17.1667 75.875 17.3125 75.625 17.5C75.375 17.6667 75.0417 17.9167 74.625 18.25L75.4688 23.7188C75.2812 23.8021 75.0729 23.875 74.8438 23.9375C74.6354 24 74.4375 24.0521 74.25 24.0938C74.0208 24.1562 73.7917 24.1979 73.5625 24.2188C73.3333 24.2396 73.0625 24.2812 72.75 24.3438C72.4792 24.3854 72.1562 24.4375 71.7812 24.5C71.4062 24.5833 70.9792 24.6771 70.5 24.7812C70.7708 24.5938 70.9896 24.375 71.1562 24.125C71.3229 23.8958 71.4583 23.6771 71.5625 23.4688C71.6667 23.2396 71.7604 23 71.8438 22.75C71.8854 22.5417 71.9271 22 71.9688 21.125C72.0312 20.25 72.0833 19.2083 72.125 18C72.1667 16.7708 72.1979 15.4583 72.2188 14.0625C72.2604 12.6667 72.2812 11.3542 72.2812 10.125C72.2812 8.875 72.2708 7.79167 72.25 6.875C72.2292 5.9375 72.1875 5.33333 72.125 5.0625C72.0208 4.72917 71.8958 4.375 71.75 4C71.625 3.66667 71.4479 3.29167 71.2188 2.875C71.0104 2.4375 70.75 1.96875 70.4375 1.46875ZM85.3438 10.0312L91.0938 10.0938C90.7604 11.3646 90.5104 12.4479 90.3438 13.3438C90.1979 14.2396 90.1042 14.9896 90.0625 15.5938C89.9792 16.2812 89.9583 16.8646 90 17.3438C90.0625 17.7812 90.1667 18.25 90.3125 18.75C90.4375 19.1667 90.625 19.6458 90.875 20.1875C91.125 20.7292 91.4583 21.2708 91.875 21.8125C91.625 21.7292 91.3542 21.6667 91.0625 21.625C90.7708 21.5833 90.5 21.5521 90.25 21.5312C89.9583 21.5104 89.6667 21.5104 89.375 21.5312C89.0833 21.5521 88.7604 21.5833 88.4062 21.625C88.1146 21.6667 87.7604 21.7188 87.3438 21.7812C86.9271 21.8438 86.4896 21.9271 86.0312 22.0312C86.3438 21.0938 86.5833 20.2812 86.75 19.5938C86.9375 18.9062 87.0729 18.3333 87.1562 17.875C87.2396 17.3333 87.2917 16.8958 87.3125 16.5625C87.3125 16.1458 87.3125 15.6771 87.3125 15.1562C87.3125 14.6146 87.3125 14.0938 87.3125 13.5938C87.3125 13.0938 87.3021 12.6562 87.2812 12.2812C87.2604 11.8854 87.2188 11.6354 87.1562 11.5312L86.8438 11.2188C86.7188 11.1146 86.5312 10.9688 86.2812 10.7812C86.0521 10.5729 85.7396 10.3229 85.3438 10.0312ZM87.5625 5.21875C88 4.98958 88.4375 4.92708 88.875 5.03125C89.3333 5.13542 89.6875 5.33333 89.9375 5.625C90.1875 5.91667 90.2708 6.26042 90.1875 6.65625C90.125 7.05208 89.7917 7.4375 89.1875 7.8125C88.5833 8.16667 88.0521 8.29167 87.5938 8.1875C87.1354 8.08333 86.8125 7.86458 86.625 7.53125C86.4375 7.19792 86.4062 6.8125 86.5312 6.375C86.6562 5.91667 87 5.53125 87.5625 5.21875ZM101.125 18.9688C101.708 18.9688 102.25 18.9062 102.75 18.7812C103.167 18.6771 103.562 18.5104 103.938 18.2812C104.333 18.0312 104.594 17.6667 104.719 17.1875C105.135 17.2708 105.49 17.3438 105.781 17.4062C106.073 17.4479 106.323 17.4896 106.531 17.5312C106.76 17.5938 106.958 17.6354 107.125 17.6562C107.292 17.6979 107.49 17.7396 107.719 17.7812C107.927 17.8229 108.177 17.875 108.469 17.9375C108.781 17.9792 109.146 18.0417 109.562 18.125C109.25 18.0833 108.927 18.1146 108.594 18.2188C108.281 18.3229 107.979 18.4375 107.688 18.5625C107.354 18.7083 107.042 18.8854 106.75 19.0938C106.562 19.2188 106.344 19.4062 106.094 19.6562C105.865 19.9062 105.531 20.1458 105.094 20.375C104.656 20.6042 104.073 20.8021 103.344 20.9688C102.635 21.1146 101.719 21.1667 100.594 21.125C99.2396 21.0833 98.1042 20.8438 97.1875 20.4062C96.2708 19.9479 95.5312 19.3958 94.9688 18.75C94.4062 18.0833 94 17.3646 93.75 16.5938C93.5 15.8229 93.3646 15.1042 93.3438 14.4375C93.3229 13.7708 93.5208 13.0729 93.9375 12.3438C94.3542 11.6146 94.9375 10.9479 95.6875 10.3438C96.4583 9.73958 97.3854 9.25 98.4688 8.875C99.5521 8.47917 100.74 8.28125 102.031 8.28125C102.781 8.28125 103.469 8.375 104.094 8.5625C104.74 8.72917 105.323 8.95833 105.844 9.25C106.385 9.54167 106.854 9.875 107.25 10.25C107.646 10.6042 107.979 10.9688 108.25 11.3438C108.521 11.7396 108.75 12.1562 108.938 12.5938C109.104 12.9688 109.24 13.3958 109.344 13.875C109.448 14.3542 109.479 14.8438 109.438 15.3438C107.854 15.3854 106.573 15.4167 105.594 15.4375C104.635 15.4583 103.885 15.4688 103.344 15.4688H101.938H100.875C100.5 15.4688 100.01 15.4792 99.4062 15.5C98.8021 15.5208 98.0625 15.5521 97.1875 15.5938C97.2917 16.4271 97.5521 17.0729 97.9688 17.5312C98.4062 17.9688 98.8646 18.3021 99.3438 18.5312C99.8854 18.7812 100.479 18.9271 101.125 18.9688ZM98.3125 13.3438C98.9792 13.3854 99.5312 13.4167 99.9688 13.4375C100.427 13.4583 100.802 13.4792 101.094 13.5C101.406 13.5208 101.656 13.5312 101.844 13.5312H102.625C103.146 13.5312 104.115 13.5 105.531 13.4375C105.469 12.5208 105.271 11.8229 104.938 11.3438C104.625 10.8646 104.292 10.5104 103.938 10.2812C103.521 10.0312 103.062 9.88542 102.562 9.84375C101.208 9.86458 100.198 10.1458 99.5312 10.6875C98.8854 11.2292 98.4792 12.1146 98.3125 13.3438ZM111.406 24.875C111.615 24.5625 111.781 24.2708 111.906 24C112.031 23.7292 112.135 23.5 112.219 23.3125C112.302 23.0833 112.365 22.875 112.406 22.6875C112.427 22.5625 112.438 22.1979 112.438 21.5938C112.438 20.9896 112.417 20.2292 112.375 19.3125C112.354 18.3958 112.323 17.3646 112.281 16.2188C112.26 15.0729 112.219 13.9062 112.156 12.7188C112.115 11.5312 112.062 10.375 112 9.25C111.958 8.125 111.917 7.11458 111.875 6.21875C111.833 5.30208 111.792 4.55208 111.75 3.96875C111.708 3.38542 111.677 3.05208 111.656 2.96875C111.615 2.84375 111.542 2.71875 111.438 2.59375C111.229 2.34375 110.875 2.10417 110.375 1.875C111.438 1.60417 112.25 1.38542 112.812 1.21875C113.146 1.13542 113.438 1.05208 113.688 0.96875C113.917 0.885417 114.146 0.802083 114.375 0.71875C114.562 0.635417 114.771 0.541667 115 0.4375C115.229 0.3125 115.438 0.177083 115.625 0.03125C115.521 0.635417 115.438 1.21875 115.375 1.78125C115.312 2.34375 115.26 2.86458 115.219 3.34375C115.177 3.88542 115.156 4.40625 115.156 4.90625C115.052 5.92708 114.99 7.04167 114.969 8.25C114.969 9.4375 114.979 10.6458 115 11.875C115.021 13.1042 115.062 14.3021 115.125 15.4688C115.188 16.6354 115.25 17.6979 115.312 18.6562C115.396 19.5938 115.469 20.3958 115.531 21.0625C115.615 21.7083 115.677 22.125 115.719 22.3125C115.802 22.625 115.885 22.9271 115.969 23.2188C116.052 23.4688 116.146 23.7292 116.25 24C116.354 24.2917 116.479 24.5208 116.625 24.6875H113.594C113.323 24.6875 113.062 24.6979 112.812 24.7188C112.583 24.7396 112.344 24.7604 112.094 24.7812C111.844 24.8021 111.615 24.8333 111.406 24.875ZM124.562 1.65625C125.229 1.82292 125.865 1.94792 126.469 2.03125C127.073 2.11458 127.604 2.17708 128.062 2.21875C128.604 2.28125 129.104 2.30208 129.562 2.28125C130.146 2.28125 130.875 2.22917 131.75 2.125C132.646 2.02083 133.562 1.92708 134.5 1.84375C135.438 1.73958 136.333 1.67708 137.188 1.65625C138.062 1.61458 138.771 1.66667 139.312 1.8125C139.854 1.9375 140.406 2.13542 140.969 2.40625C141.552 2.65625 142.083 2.97917 142.562 3.375C143.042 3.75 143.438 4.19792 143.75 4.71875C144.062 5.21875 144.24 5.79167 144.281 6.4375C144.26 7.25 144.073 8.01042 143.719 8.71875C143.427 9.32292 142.938 9.94792 142.25 10.5938C141.562 11.2188 140.573 11.6979 139.281 12.0312C139.927 12.1146 140.479 12.2604 140.938 12.4688C141.417 12.6562 141.823 12.8854 142.156 13.1562C142.51 13.4062 142.792 13.6875 143 14C143.229 14.3125 143.406 14.625 143.531 14.9375C143.844 15.6667 143.99 16.4792 143.969 17.375C143.844 18.5417 143.604 19.4688 143.25 20.1562C142.917 20.8438 142.531 21.375 142.094 21.75C141.656 22.125 141.208 22.3854 140.75 22.5312C140.292 22.6771 139.875 22.7917 139.5 22.875C139.125 22.9583 138.667 23 138.125 23C137.583 23 137 22.9896 136.375 22.9688C135.771 22.9271 135.146 22.8958 134.5 22.875C133.854 22.8333 133.24 22.8333 132.656 22.875C132.177 22.9167 131.594 22.9583 130.906 23C130.323 23.0417 129.594 23.0938 128.719 23.1562C127.844 23.1979 126.823 23.25 125.656 23.3125C125.885 23.1458 126.073 22.9583 126.219 22.75C126.385 22.5208 126.521 22.3229 126.625 22.1562C126.729 21.9479 126.823 21.75 126.906 21.5625C126.969 21.3958 127.021 20.9375 127.062 20.1875C127.104 19.4375 127.135 18.5417 127.156 17.5C127.177 16.4375 127.188 15.3021 127.188 14.0938C127.208 12.8646 127.198 11.6875 127.156 10.5625C127.135 9.41667 127.094 8.40625 127.031 7.53125C126.99 6.63542 126.927 5.98958 126.844 5.59375C126.719 5.15625 126.552 4.70833 126.344 4.25C126.177 3.85417 125.938 3.42708 125.625 2.96875C125.333 2.51042 124.979 2.07292 124.562 1.65625ZM131.156 4.84375C131.156 4.92708 131.167 5.20833 131.188 5.6875C131.208 6.10417 131.229 6.75 131.25 7.625C131.292 8.47917 131.344 9.69792 131.406 11.2812C131.927 11.5104 132.438 11.6354 132.938 11.6562C133.438 11.6562 133.885 11.6354 134.281 11.5938C134.74 11.5312 135.177 11.4271 135.594 11.2812C136.156 11.0521 136.594 10.6771 136.906 10.1562C137.24 9.63542 137.458 9.09375 137.562 8.53125C137.688 7.94792 137.719 7.40625 137.656 6.90625C137.594 6.38542 137.458 6.01042 137.25 5.78125C136.854 5.42708 136.365 5.13542 135.781 4.90625C135.281 4.71875 134.646 4.59375 133.875 4.53125C133.125 4.44792 132.219 4.55208 131.156 4.84375ZM131 19.6562C131.771 20.0521 132.448 20.3125 133.031 20.4375C133.615 20.5625 134.104 20.625 134.5 20.625C134.958 20.625 135.354 20.5625 135.688 20.4375C136.083 20.25 136.469 20 136.844 19.6875C137.24 19.3542 137.531 18.9688 137.719 18.5312C137.927 18.0729 138.01 17.5729 137.969 17.0312C137.927 16.4688 137.688 15.8542 137.25 15.1875C136.854 14.7083 136.375 14.3333 135.812 14.0625C135.312 13.8333 134.677 13.6875 133.906 13.625C133.156 13.5625 132.229 13.7396 131.125 14.1562L131 19.6562ZM154.094 10C154.635 10 155.198 10.1042 155.781 10.3125C156.365 10.5 156.927 10.75 157.469 11.0625C158.01 11.3542 158.5 11.6771 158.938 12.0312C159.396 12.3646 159.771 12.6875 160.062 13C160.583 13.5625 160.938 14.3229 161.125 15.2812C161.333 16.2188 161.375 17.1875 161.25 18.1875C161.125 19.1667 160.833 20.0938 160.375 20.9688C159.917 21.8438 159.281 22.4896 158.469 22.9062C157.885 23.1979 157.312 23.4271 156.75 23.5938C156.188 23.7604 155.646 23.8854 155.125 23.9688C154.604 24.0521 154.115 24.0938 153.656 24.0938C153.198 24.0938 152.802 24.0833 152.469 24.0625C151.844 24.0208 151.188 23.8021 150.5 23.4062C149.833 23.0104 149.198 22.5208 148.594 21.9375C148.01 21.3542 147.51 20.7188 147.094 20.0312C146.677 19.3229 146.427 18.6562 146.344 18.0312C146.219 17.1771 146.198 16.2812 146.281 15.3438C146.365 14.4062 146.667 13.5417 147.188 12.75C147.729 11.9583 148.542 11.3021 149.625 10.7812C150.729 10.2604 152.219 10 154.094 10ZM153.062 22.125C153.292 22.1667 153.604 22.1146 154 21.9688C154.396 21.8021 154.781 21.5417 155.156 21.1875C155.552 20.8333 155.896 20.3854 156.188 19.8438C156.5 19.2812 156.688 18.6042 156.75 17.8125C156.812 17.0417 156.812 16.3333 156.75 15.6875C156.708 15.0417 156.615 14.4792 156.469 14C156.323 13.5 156.156 13.0938 155.969 12.7812C155.781 12.4688 155.583 12.25 155.375 12.125C155.021 11.9375 154.594 11.7917 154.094 11.6875C153.594 11.5625 153.167 11.5833 152.812 11.75C152.646 11.8333 152.438 12.0104 152.188 12.2812C151.938 12.5521 151.688 12.8958 151.438 13.3125C151.188 13.7083 150.958 14.1667 150.75 14.6875C150.562 15.2083 150.427 15.75 150.344 16.3125C150.26 16.875 150.24 17.4792 150.281 18.125C150.344 18.7708 150.479 19.3854 150.688 19.9688C150.896 20.5312 151.188 21.0208 151.562 21.4375C151.958 21.8333 152.458 22.0625 153.062 22.125ZM163.719 20.5625C163.865 19.875 163.969 19.2708 164.031 18.75C164.115 18.2083 164.177 17.7604 164.219 17.4062C164.26 16.9896 164.281 16.6354 164.281 16.3438C164.26 15.9896 164.24 15.5729 164.219 15.0938C164.219 14.5938 164.198 14.1042 164.156 13.625C164.135 13.125 164.104 12.6875 164.062 12.3125C164.021 11.9167 163.969 11.6354 163.906 11.4688C163.823 11.3021 163.708 11.125 163.562 10.9375C163.271 10.5833 162.844 10.2396 162.281 9.90625C162.76 9.80208 163.167 9.71875 163.5 9.65625C163.854 9.57292 164.146 9.5 164.375 9.4375C164.625 9.35417 164.844 9.28125 165.031 9.21875C165.198 9.15625 165.396 9.09375 165.625 9.03125C165.812 8.98958 166.042 8.9375 166.312 8.875C166.583 8.8125 166.896 8.73958 167.25 8.65625L167.156 11.5C167.823 10.7083 168.5 10.1146 169.188 9.71875C169.875 9.32292 170.521 9.04167 171.125 8.875C171.812 8.66667 172.49 8.5625 173.156 8.5625C173.99 8.60417 174.76 8.73958 175.469 8.96875C176.198 9.19792 176.823 9.46875 177.344 9.78125C177.885 10.0729 178.323 10.3854 178.656 10.7188C178.99 11.0521 179.188 11.3438 179.25 11.5938C179.5 12.4062 179.562 13.1562 179.438 13.8438C179.312 14.5104 179.146 15.1667 178.938 15.8125C178.75 16.4375 178.583 17.0625 178.438 17.6875C178.312 18.3125 178.365 18.9896 178.594 19.7188C178.677 19.9062 178.76 20.0938 178.844 20.2812C178.927 20.4479 179.031 20.6146 179.156 20.7812C179.281 20.9479 179.427 21.0833 179.594 21.1875C179.365 21.1667 179.135 21.1562 178.906 21.1562C178.677 21.1354 178.469 21.1146 178.281 21.0938C178.052 21.0729 177.844 21.0521 177.656 21.0312C177.448 21.0104 177.167 21 176.812 21C176.208 21 175.271 21.0312 174 21.0938C174.188 20.6562 174.333 20.2917 174.438 20C174.562 19.6875 174.667 19.4375 174.75 19.25C174.833 19.0208 174.896 18.8438 174.938 18.7188C175.188 18.1146 175.333 17.4271 175.375 16.6562C175.438 15.8854 175.385 15.1042 175.219 14.3125C175.156 14.0417 175.052 13.7188 174.906 13.3438C174.76 12.9688 174.562 12.6042 174.312 12.25C174.083 11.8958 173.802 11.5938 173.469 11.3438C173.156 11.0938 172.792 10.9479 172.375 10.9062C171.958 10.8646 171.49 10.9688 170.969 11.2188C170.469 11.4688 169.927 11.9271 169.344 12.5938C168.906 13.1562 168.562 13.8438 168.312 14.6562C168.083 15.3438 167.927 16.2083 167.844 17.25C167.76 18.2708 167.885 19.4688 168.219 20.8438C167.927 20.8021 167.656 20.7812 167.406 20.7812C167.156 20.7604 166.948 20.7396 166.781 20.7188C166.573 20.6979 166.385 20.6771 166.219 20.6562C166.031 20.6562 165.823 20.6458 165.594 20.625C165.385 20.625 165.125 20.625 164.812 20.625C164.5 20.6042 164.135 20.5833 163.719 20.5625ZM196.25 10.75C196.188 10.3333 196.135 9.98958 196.094 9.71875C196.052 9.42708 196.01 9.19792 195.969 9.03125C195.927 8.82292 195.896 8.66667 195.875 8.5625C195.833 8.45833 195.781 8.34375 195.719 8.21875C195.677 8.11458 195.604 7.98958 195.5 7.84375C195.417 7.69792 195.312 7.53125 195.188 7.34375C195.458 7.42708 195.729 7.47917 196 7.5C196.292 7.52083 196.562 7.54167 196.812 7.5625C197.083 7.58333 197.365 7.58333 197.656 7.5625C197.948 7.5625 198.281 7.55208 198.656 7.53125C198.99 7.51042 199.385 7.5 199.844 7.5C200.323 7.47917 200.865 7.44792 201.469 7.40625C201.115 7.48958 200.812 7.63542 200.562 7.84375C200.333 8.03125 200.135 8.23958 199.969 8.46875C199.781 8.71875 199.625 8.98958 199.5 9.28125C199.396 9.55208 199.333 10.0729 199.312 10.8438C199.292 11.5938 199.292 12.4896 199.312 13.5312C199.333 14.5521 199.354 15.6562 199.375 16.8438C199.417 18.0312 199.438 19.1667 199.438 20.25C199.458 21.3333 199.458 22.3229 199.438 23.2188C199.417 24.0938 199.365 24.7396 199.281 25.1562C198.99 26.4688 198.448 27.5312 197.656 28.3438C196.865 29.1771 195.823 29.625 194.531 29.6875C192.969 29.75 191.729 29.6042 190.812 29.25C189.917 28.8958 189.219 28.4583 188.719 27.9375C188.219 27.4375 187.844 26.9271 187.594 26.4062C187.344 25.8854 187.083 25.4896 186.812 25.2188C186.562 24.9896 186.312 24.7708 186.062 24.5625C185.833 24.3958 185.594 24.2292 185.344 24.0625C185.115 23.8958 184.885 23.7917 184.656 23.75C185.26 23.7708 185.802 23.7812 186.281 23.7812C186.76 23.7812 187.167 23.7812 187.5 23.7812C187.875 23.7812 188.208 23.7708 188.5 23.75H189.5H192.344C191.927 23.875 191.615 24.0104 191.406 24.1562C191.198 24.3229 191.052 24.4896 190.969 24.6562C190.885 24.8438 190.844 25.0312 190.844 25.2188C190.927 25.7188 191.198 26.0833 191.656 26.3125C192.115 26.5417 192.74 26.6771 193.531 26.7188C194.302 26.7604 194.833 26.7396 195.125 26.6562C195.417 26.5938 195.646 26.4688 195.812 26.2812C196.146 25.7812 196.427 25.1354 196.656 24.3438C196.823 23.6771 196.938 22.8125 197 21.75C197.083 20.6667 196.99 19.3438 196.719 17.7812C196.052 18.6979 195.281 19.3854 194.406 19.8438C193.531 20.3021 192.698 20.6354 191.906 20.8438C190.969 21.0729 190.021 21.1875 189.062 21.1875C186.542 21.0833 184.656 20.5 183.406 19.4375C182.156 18.375 181.583 16.9479 181.688 15.1562C181.75 14.2604 182.021 13.3646 182.5 12.4688C183 11.5729 183.646 10.7708 184.438 10.0625C185.25 9.35417 186.177 8.79167 187.219 8.375C188.26 7.95833 189.344 7.78125 190.469 7.84375C191.323 7.92708 192.125 8.08333 192.875 8.3125C193.521 8.52083 194.156 8.8125 194.781 9.1875C195.427 9.5625 195.917 10.0833 196.25 10.75ZM186.312 13.875C186.188 14.6875 186.24 15.4479 186.469 16.1562C186.719 16.8646 187.062 17.4792 187.5 18C187.938 18.5 188.427 18.8958 188.969 19.1875C189.51 19.4583 190.021 19.5833 190.5 19.5625C191.5 19.5417 192.365 19.0938 193.094 18.2188C193.823 17.3229 194.26 15.9896 194.406 14.2188C194.469 13.3438 194.354 12.5938 194.062 11.9688C193.792 11.3229 193.448 10.8021 193.031 10.4062C192.615 10.0104 192.177 9.72917 191.719 9.5625C191.26 9.39583 190.896 9.32292 190.625 9.34375C190.25 9.38542 189.833 9.5 189.375 9.6875C188.938 9.85417 188.51 10.1146 188.094 10.4688C187.677 10.8021 187.302 11.25 186.969 11.8125C186.656 12.375 186.438 13.0625 186.312 13.875ZM204.094 11.3438C204.198 11.2188 204.26 10.9896 204.281 10.6562C204.323 10.3021 204.406 9.90625 204.531 9.46875C204.677 9.03125 204.917 8.57292 205.25 8.09375C205.583 7.61458 206.125 7.16667 206.875 6.75C207.604 6.33333 208.312 6.08333 209 6C209.688 5.91667 210.344 5.94792 210.969 6.09375C211.594 6.23958 212.177 6.46875 212.719 6.78125C213.281 7.09375 213.792 7.4375 214.25 7.8125C214.562 8.0625 214.812 8.42708 215 8.90625C215.188 9.36458 215.333 9.88542 215.438 10.4688C215.542 11.0521 215.615 11.6667 215.656 12.3125C215.719 12.9375 215.76 13.5521 215.781 14.1562C215.802 14.7396 215.812 15.2812 215.812 15.7812C215.833 16.2604 215.875 16.6562 215.938 16.9688C216.021 17.4271 216.167 17.8229 216.375 18.1562C216.583 18.4688 216.812 18.7396 217.062 18.9688C217.312 19.1771 217.562 19.3438 217.812 19.4688C218.062 19.5938 218.281 19.6875 218.469 19.75C218.594 19.8125 218.708 19.8542 218.812 19.875C219.021 19.9583 219.167 19.9583 219.25 19.875C219.125 20.1667 219.01 20.4167 218.906 20.625C218.802 20.8333 218.719 21.0104 218.656 21.1562C218.573 21.3229 218.5 21.4583 218.438 21.5625C218.375 21.6875 218.302 21.8021 218.219 21.9062C218.156 22.0104 218.073 22.125 217.969 22.25C217.865 22.375 217.76 22.5104 217.656 22.6562C217.385 22.5521 217.125 22.4271 216.875 22.2812C216.646 22.1354 216.438 22 216.25 21.875C216.021 21.7292 215.812 21.5833 215.625 21.4375C215.438 21.2917 215.26 21.125 215.094 20.9375C214.948 20.7708 214.792 20.5938 214.625 20.4062C214.479 20.2188 214.354 20.0104 214.25 19.7812C214.125 20.0521 213.823 20.4375 213.344 20.9375C212.885 21.4375 212.281 21.8958 211.531 22.3125C210.781 22.7083 209.906 22.9896 208.906 23.1562C207.927 23.3229 206.844 23.2083 205.656 22.8125C205.135 22.6458 204.646 22.4062 204.188 22.0938C203.729 21.7604 203.333 21.3646 203 20.9062C202.688 20.4479 202.458 19.9271 202.312 19.3438C202.188 18.7396 202.198 18.0729 202.344 17.3438C202.49 16.6146 202.75 16 203.125 15.5C203.5 15 203.948 14.5938 204.469 14.2812C204.99 13.9688 205.573 13.7292 206.219 13.5625C206.865 13.3958 207.531 13.2812 208.219 13.2188C208.76 13.1979 209.302 13.2292 209.844 13.3125C210.302 13.3958 210.781 13.5521 211.281 13.7812C211.781 13.9896 212.208 14.3125 212.562 14.75C212.542 13.6458 212.5 12.7708 212.438 12.125C212.396 11.4583 212.354 10.9479 212.312 10.5938C212.229 10.1771 212.156 9.88542 212.094 9.71875C211.99 9.57292 211.875 9.40625 211.75 9.21875C211.646 9.03125 211.51 8.86458 211.344 8.71875C211.177 8.55208 210.969 8.41667 210.719 8.3125C210.469 8.20833 210.177 8.16667 209.844 8.1875C209.49 8.20833 209.208 8.30208 209 8.46875C208.792 8.63542 208.625 8.83333 208.5 9.0625C208.396 9.27083 208.333 9.5 208.312 9.75C208.292 10 208.302 10.2188 208.344 10.4062C208.385 10.5312 208.448 10.6667 208.531 10.8125C208.615 10.9375 208.729 11.0729 208.875 11.2188C209.021 11.3646 209.219 11.4896 209.469 11.5938C208.99 11.6562 208.562 11.7083 208.188 11.75C207.812 11.7708 207.49 11.8021 207.219 11.8438C206.906 11.8854 206.635 11.9167 206.406 11.9375C206.177 11.9583 205.906 12 205.594 12.0625C205.323 12.1042 204.99 12.1562 204.594 12.2188C204.198 12.2812 203.74 12.3646 203.219 12.4688C203.344 12.3229 203.458 12.1875 203.562 12.0625C203.667 11.9167 203.76 11.7917 203.844 11.6875C203.927 11.5625 204.01 11.4479 204.094 11.3438ZM208.781 15.0625C208.406 15.0833 208.031 15.1771 207.656 15.3438C207.281 15.4896 206.948 15.7083 206.656 16C206.365 16.2708 206.115 16.5938 205.906 16.9688C205.719 17.3229 205.625 17.7188 205.625 18.1562C205.625 18.5938 205.729 18.9792 205.938 19.3125C206.167 19.625 206.458 19.8854 206.812 20.0938C207.188 20.3021 207.583 20.4271 208 20.4688C208.438 20.5104 208.865 20.4688 209.281 20.3438C209.677 20.1979 210.052 19.9688 210.406 19.6562C210.76 19.3229 211.062 18.9688 211.312 18.5938C211.562 18.1979 211.74 17.8125 211.844 17.4375C211.948 17.0417 211.958 16.7188 211.875 16.4688C211.708 15.9271 211.333 15.5521 210.75 15.3438C210.167 15.1146 209.51 15.0208 208.781 15.0625ZM219.656 24.875C219.865 24.5625 220.031 24.2708 220.156 24C220.281 23.7292 220.385 23.5 220.469 23.3125C220.552 23.0833 220.615 22.875 220.656 22.6875C220.677 22.5625 220.688 22.1979 220.688 21.5938C220.688 20.9896 220.667 20.2292 220.625 19.3125C220.604 18.3958 220.573 17.3646 220.531 16.2188C220.51 15.0729 220.469 13.9062 220.406 12.7188C220.365 11.5312 220.312 10.375 220.25 9.25C220.208 8.125 220.167 7.11458 220.125 6.21875C220.083 5.30208 220.042 4.55208 220 3.96875C219.958 3.38542 219.927 3.05208 219.906 2.96875C219.865 2.84375 219.792 2.71875 219.688 2.59375C219.479 2.34375 219.125 2.10417 218.625 1.875C219.688 1.60417 220.5 1.38542 221.062 1.21875C221.396 1.13542 221.688 1.05208 221.938 0.96875C222.167 0.885417 222.396 0.802083 222.625 0.71875C222.812 0.635417 223.021 0.541667 223.25 0.4375C223.479 0.3125 223.688 0.177083 223.875 0.03125C223.771 0.635417 223.688 1.21875 223.625 1.78125C223.562 2.34375 223.51 2.86458 223.469 3.34375C223.427 3.88542 223.406 4.40625 223.406 4.90625C223.302 5.92708 223.24 7.04167 223.219 8.25C223.219 9.4375 223.229 10.6458 223.25 11.875C223.271 13.1042 223.312 14.3021 223.375 15.4688C223.438 16.6354 223.5 17.6979 223.562 18.6562C223.646 19.5938 223.719 20.3958 223.781 21.0625C223.865 21.7083 223.927 22.125 223.969 22.3125C224.052 22.625 224.135 22.9271 224.219 23.2188C224.302 23.4688 224.396 23.7292 224.5 24C224.604 24.2917 224.729 24.5208 224.875 24.6875H221.844C221.573 24.6875 221.312 24.6979 221.062 24.7188C220.833 24.7396 220.594 24.7604 220.344 24.7812C220.094 24.8021 219.865 24.8333 219.656 24.875ZM228.344 11.3438C228.448 11.2188 228.51 10.9896 228.531 10.6562C228.573 10.3021 228.656 9.90625 228.781 9.46875C228.927 9.03125 229.167 8.57292 229.5 8.09375C229.833 7.61458 230.375 7.16667 231.125 6.75C231.854 6.33333 232.562 6.08333 233.25 6C233.938 5.91667 234.594 5.94792 235.219 6.09375C235.844 6.23958 236.427 6.46875 236.969 6.78125C237.531 7.09375 238.042 7.4375 238.5 7.8125C238.812 8.0625 239.062 8.42708 239.25 8.90625C239.438 9.36458 239.583 9.88542 239.688 10.4688C239.792 11.0521 239.865 11.6667 239.906 12.3125C239.969 12.9375 240.01 13.5521 240.031 14.1562C240.052 14.7396 240.062 15.2812 240.062 15.7812C240.083 16.2604 240.125 16.6562 240.188 16.9688C240.271 17.4271 240.417 17.8229 240.625 18.1562C240.833 18.4688 241.062 18.7396 241.312 18.9688C241.562 19.1771 241.812 19.3438 242.062 19.4688C242.312 19.5938 242.531 19.6875 242.719 19.75C242.844 19.8125 242.958 19.8542 243.062 19.875C243.271 19.9583 243.417 19.9583 243.5 19.875C243.375 20.1667 243.26 20.4167 243.156 20.625C243.052 20.8333 242.969 21.0104 242.906 21.1562C242.823 21.3229 242.75 21.4583 242.688 21.5625C242.625 21.6875 242.552 21.8021 242.469 21.9062C242.406 22.0104 242.323 22.125 242.219 22.25C242.115 22.375 242.01 22.5104 241.906 22.6562C241.635 22.5521 241.375 22.4271 241.125 22.2812C240.896 22.1354 240.688 22 240.5 21.875C240.271 21.7292 240.062 21.5833 239.875 21.4375C239.688 21.2917 239.51 21.125 239.344 20.9375C239.198 20.7708 239.042 20.5938 238.875 20.4062C238.729 20.2188 238.604 20.0104 238.5 19.7812C238.375 20.0521 238.073 20.4375 237.594 20.9375C237.135 21.4375 236.531 21.8958 235.781 22.3125C235.031 22.7083 234.156 22.9896 233.156 23.1562C232.177 23.3229 231.094 23.2083 229.906 22.8125C229.385 22.6458 228.896 22.4062 228.438 22.0938C227.979 21.7604 227.583 21.3646 227.25 20.9062C226.938 20.4479 226.708 19.9271 226.562 19.3438C226.438 18.7396 226.448 18.0729 226.594 17.3438C226.74 16.6146 227 16 227.375 15.5C227.75 15 228.198 14.5938 228.719 14.2812C229.24 13.9688 229.823 13.7292 230.469 13.5625C231.115 13.3958 231.781 13.2812 232.469 13.2188C233.01 13.1979 233.552 13.2292 234.094 13.3125C234.552 13.3958 235.031 13.5521 235.531 13.7812C236.031 13.9896 236.458 14.3125 236.812 14.75C236.792 13.6458 236.75 12.7708 236.688 12.125C236.646 11.4583 236.604 10.9479 236.562 10.5938C236.479 10.1771 236.406 9.88542 236.344 9.71875C236.24 9.57292 236.125 9.40625 236 9.21875C235.896 9.03125 235.76 8.86458 235.594 8.71875C235.427 8.55208 235.219 8.41667 234.969 8.3125C234.719 8.20833 234.427 8.16667 234.094 8.1875C233.74 8.20833 233.458 8.30208 233.25 8.46875C233.042 8.63542 232.875 8.83333 232.75 9.0625C232.646 9.27083 232.583 9.5 232.562 9.75C232.542 10 232.552 10.2188 232.594 10.4062C232.635 10.5312 232.698 10.6667 232.781 10.8125C232.865 10.9375 232.979 11.0729 233.125 11.2188C233.271 11.3646 233.469 11.4896 233.719 11.5938C233.24 11.6562 232.812 11.7083 232.438 11.75C232.062 11.7708 231.74 11.8021 231.469 11.8438C231.156 11.8854 230.885 11.9167 230.656 11.9375C230.427 11.9583 230.156 12 229.844 12.0625C229.573 12.1042 229.24 12.1562 228.844 12.2188C228.448 12.2812 227.99 12.3646 227.469 12.4688C227.594 12.3229 227.708 12.1875 227.812 12.0625C227.917 11.9167 228.01 11.7917 228.094 11.6875C228.177 11.5625 228.26 11.4479 228.344 11.3438ZM233.031 15.0625C232.656 15.0833 232.281 15.1771 231.906 15.3438C231.531 15.4896 231.198 15.7083 230.906 16C230.615 16.2708 230.365 16.5938 230.156 16.9688C229.969 17.3229 229.875 17.7188 229.875 18.1562C229.875 18.5938 229.979 18.9792 230.188 19.3125C230.417 19.625 230.708 19.8854 231.062 20.0938C231.438 20.3021 231.833 20.4271 232.25 20.4688C232.688 20.5104 233.115 20.4688 233.531 20.3438C233.927 20.1979 234.302 19.9688 234.656 19.6562C235.01 19.3229 235.312 18.9688 235.562 18.5938C235.812 18.1979 235.99 17.8125 236.094 17.4375C236.198 17.0417 236.208 16.7188 236.125 16.4688C235.958 15.9271 235.583 15.5521 235 15.3438C234.417 15.1146 233.76 15.0208 233.031 15.0625Z"
        fill="black" />
</svg>